<svg id="Layer_1" data-name="Layer 1" xmlns="http://www.w3.org/2000/svg" viewBox="0 0 585.23 335.57"><defs><style>.cls-1{font-size:118.02px;font-family:felixtowe;}.cls-2{font-size:130.85px;}.cls-3{font-size:16px;font-family:ITCAvantGardePro-Bold, ITC Avant Garde Gothic Pro;font-weight:700;}</style></defs><text class="cls-1" transform="translate(55.23 151.65)">sophia<tspan class="cls-2"><tspan x="0" y="97.5">victoria</tspan></tspan></text><text class="cls-3" transform="translate(435.17 155.61) rotate(-21.72)">d</text><text class="cls-3" transform="translate(448.27 150.93) rotate(-12.36)">i</text><text class="cls-3" transform="translate(455.42 149.32) rotate(-3)">g</text><text class="cls-3" transform="translate(469.41 149.1) rotate(6.54)">i</text><text class="cls-3" transform="translate(476.84 150.1) rotate(13.57)">t</text><text class="cls-3" transform="translate(484.75 151.98) rotate(23.11)">a</text><text class="cls-3" transform="translate(497.5 157.98) rotate(32.65)">l</text><text class="cls-3" transform="translate(503.7 162.14) rotate(39.43)"> </text><text class="cls-3" transform="matrix(0.66, 0.75, -0.75, 0.66, 509.66, 167)">d</text><text class="cls-3" transform="matrix(0.49, 0.87, -0.87, 0.49, 518.49, 177.63)">e</text><text class="cls-3" transform="matrix(0.32, 0.95, -0.95, 0.32, 524.56, 189.16)">s</text><text class="cls-3" transform="matrix(0.19, 0.98, -0.98, 0.19, 527.75, 199.45)">i</text><text class="cls-3" transform="matrix(0.03, 1, -1, 0.03, 529.18, 206.69)">g</text><text class="cls-3" transform="translate(529.19 220.57) rotate(100.38)">n</text><text class="cls-3" transform="translate(526.64 233.09) rotate(111.59)">e</text><text class="cls-3" transform="translate(521.44 245.1) rotate(121.18)">r</text></svg>